<mxfile host="65bd71144e">
    <diagram id="yxfAynj5KHn1HwAmodsz" name="Page-1">
        <mxGraphModel dx="1209" dy="1129" grid="1" gridSize="10" guides="1" tooltips="1" connect="1" arrows="1" fold="1" page="1" pageScale="1" pageWidth="827" pageHeight="1169" math="0" shadow="0">
            <root>
                <mxCell id="0"/>
                <mxCell id="1" parent="0"/>
                <mxCell id="4" value="&lt;font style=&quot;font-size: 18px&quot;&gt;Component&lt;/font&gt;" style="whiteSpace=wrap;html=1;" parent="1" vertex="1">
                    <mxGeometry x="40" y="40" width="120" height="40" as="geometry"/>
                </mxCell>
                <mxCell id="5" value="&lt;font style=&quot;font-size: 16px&quot;&gt;Subcomponent&lt;/font&gt;" style="whiteSpace=wrap;html=1;" parent="1" vertex="1">
                    <mxGeometry x="660" y="40" width="120" height="40" as="geometry"/>
                </mxCell>
                <mxCell id="26" value="PlayBar" style="swimlane;startSize=20;" parent="1" vertex="1">
                    <mxGeometry x="660" y="120" width="160" height="395" as="geometry">
                        <mxRectangle x="-800" y="120" width="130" height="23" as="alternateBounds"/>
                    </mxGeometry>
                </mxCell>
                <mxCell id="27" value="" style="swimlane;fontStyle=0;childLayout=stackLayout;horizontal=1;startSize=0;horizontalStack=0;resizeParent=1;resizeParentMax=0;resizeLast=0;collapsible=1;marginBottom=0;" parent="26" vertex="1">
                    <mxGeometry y="20" width="160" height="225" as="geometry">
                        <mxRectangle y="20" width="40" height="26" as="alternateBounds"/>
                    </mxGeometry>
                </mxCell>
                <mxCell id="28" value="title: text" style="text;strokeColor=none;fillColor=none;align=left;verticalAlign=top;spacingLeft=4;spacingRight=4;overflow=hidden;rotatable=0;points=[[0,0.5],[1,0.5]];portConstraint=eastwest;" parent="27" vertex="1">
                    <mxGeometry width="160" height="25" as="geometry"/>
                </mxCell>
                <mxCell id="37" value="covers: img" style="text;strokeColor=none;fillColor=none;align=left;verticalAlign=top;spacingLeft=4;spacingRight=4;overflow=hidden;rotatable=0;points=[[0,0.5],[1,0.5]];portConstraint=eastwest;" parent="27" vertex="1">
                    <mxGeometry y="25" width="160" height="25" as="geometry"/>
                </mxCell>
                <mxCell id="38" value="play: button" style="text;strokeColor=none;fillColor=none;align=left;verticalAlign=top;spacingLeft=4;spacingRight=4;overflow=hidden;rotatable=0;points=[[0,0.5],[1,0.5]];portConstraint=eastwest;" parent="27" vertex="1">
                    <mxGeometry y="50" width="160" height="25" as="geometry"/>
                </mxCell>
                <mxCell id="39" value="nextCombination: button" style="text;strokeColor=none;fillColor=none;align=left;verticalAlign=top;spacingLeft=4;spacingRight=4;overflow=hidden;rotatable=0;points=[[0,0.5],[1,0.5]];portConstraint=eastwest;" parent="27" vertex="1">
                    <mxGeometry y="75" width="160" height="25" as="geometry"/>
                </mxCell>
                <mxCell id="40" value="prevCombination: button" style="text;strokeColor=none;fillColor=none;align=left;verticalAlign=top;spacingLeft=4;spacingRight=4;overflow=hidden;rotatable=0;points=[[0,0.5],[1,0.5]];portConstraint=eastwest;" parent="27" vertex="1">
                    <mxGeometry y="100" width="160" height="25" as="geometry"/>
                </mxCell>
                <mxCell id="41" value="like: button" style="text;strokeColor=none;fillColor=none;align=left;verticalAlign=top;spacingLeft=4;spacingRight=4;overflow=hidden;rotatable=0;points=[[0,0.5],[1,0.5]];portConstraint=eastwest;" parent="27" vertex="1">
                    <mxGeometry y="125" width="160" height="25" as="geometry"/>
                </mxCell>
                <mxCell id="42" value="unlike: button" style="text;strokeColor=none;fillColor=none;align=left;verticalAlign=top;spacingLeft=4;spacingRight=4;overflow=hidden;rotatable=0;points=[[0,0.5],[1,0.5]];portConstraint=eastwest;" parent="27" vertex="1">
                    <mxGeometry y="150" width="160" height="25" as="geometry"/>
                </mxCell>
                <mxCell id="43" value="playTime: text" style="text;strokeColor=none;fillColor=none;align=left;verticalAlign=top;spacingLeft=4;spacingRight=4;overflow=hidden;rotatable=0;points=[[0,0.5],[1,0.5]];portConstraint=eastwest;" parent="27" vertex="1">
                    <mxGeometry y="175" width="160" height="25" as="geometry"/>
                </mxCell>
                <mxCell id="44" value="totalTime: text" style="text;strokeColor=none;fillColor=none;align=left;verticalAlign=top;spacingLeft=4;spacingRight=4;overflow=hidden;rotatable=0;points=[[0,0.5],[1,0.5]];portConstraint=eastwest;" parent="27" vertex="1">
                    <mxGeometry y="200" width="160" height="25" as="geometry"/>
                </mxCell>
                <mxCell id="31" value="" style="swimlane;fontStyle=0;childLayout=stackLayout;horizontal=1;startSize=0;horizontalStack=0;resizeParent=1;resizeParentMax=0;resizeLast=0;collapsible=1;marginBottom=0;" parent="26" vertex="1">
                    <mxGeometry y="245" width="160" height="150" as="geometry">
                        <mxRectangle y="20" width="40" height="26" as="alternateBounds"/>
                    </mxGeometry>
                </mxCell>
                <mxCell id="32" value="+ onTitleClicked" style="text;strokeColor=none;fillColor=none;align=left;verticalAlign=top;spacingLeft=4;spacingRight=4;overflow=hidden;rotatable=0;points=[[0,0.5],[1,0.5]];portConstraint=eastwest;" parent="31" vertex="1">
                    <mxGeometry width="160" height="25" as="geometry"/>
                </mxCell>
                <mxCell id="46" value="+ onPlayClicked" style="text;strokeColor=none;fillColor=none;align=left;verticalAlign=top;spacingLeft=4;spacingRight=4;overflow=hidden;rotatable=0;points=[[0,0.5],[1,0.5]];portConstraint=eastwest;" parent="31" vertex="1">
                    <mxGeometry y="25" width="160" height="25" as="geometry"/>
                </mxCell>
                <mxCell id="47" value="+ onNextClicked" style="text;strokeColor=none;fillColor=none;align=left;verticalAlign=top;spacingLeft=4;spacingRight=4;overflow=hidden;rotatable=0;points=[[0,0.5],[1,0.5]];portConstraint=eastwest;" parent="31" vertex="1">
                    <mxGeometry y="50" width="160" height="25" as="geometry"/>
                </mxCell>
                <mxCell id="48" value="+ onPrevClicked" style="text;strokeColor=none;fillColor=none;align=left;verticalAlign=top;spacingLeft=4;spacingRight=4;overflow=hidden;rotatable=0;points=[[0,0.5],[1,0.5]];portConstraint=eastwest;" parent="31" vertex="1">
                    <mxGeometry y="75" width="160" height="25" as="geometry"/>
                </mxCell>
                <mxCell id="49" value="+ onLikeClicked" style="text;strokeColor=none;fillColor=none;align=left;verticalAlign=top;spacingLeft=4;spacingRight=4;overflow=hidden;rotatable=0;points=[[0,0.5],[1,0.5]];portConstraint=eastwest;" parent="31" vertex="1">
                    <mxGeometry y="100" width="160" height="25" as="geometry"/>
                </mxCell>
                <mxCell id="50" value="+ onUnlikeClicked" style="text;strokeColor=none;fillColor=none;align=left;verticalAlign=top;spacingLeft=4;spacingRight=4;overflow=hidden;rotatable=0;points=[[0,0.5],[1,0.5]];portConstraint=eastwest;" parent="31" vertex="1">
                    <mxGeometry y="125" width="160" height="25" as="geometry"/>
                </mxCell>
                <mxCell id="80" value="Album" style="swimlane;startSize=20;" parent="1" vertex="1">
                    <mxGeometry x="40" y="120" width="160" height="145" as="geometry">
                        <mxRectangle x="-800" y="120" width="130" height="23" as="alternateBounds"/>
                    </mxGeometry>
                </mxCell>
                <mxCell id="81" value="" style="swimlane;fontStyle=0;childLayout=stackLayout;horizontal=1;startSize=0;horizontalStack=0;resizeParent=1;resizeParentMax=0;resizeLast=0;collapsible=1;marginBottom=0;" parent="80" vertex="1">
                    <mxGeometry y="20" width="160" height="75" as="geometry">
                        <mxRectangle y="20" width="40" height="26" as="alternateBounds"/>
                    </mxGeometry>
                </mxCell>
                <mxCell id="82" value="title: test" style="text;strokeColor=none;fillColor=none;align=left;verticalAlign=top;spacingLeft=4;spacingRight=4;overflow=hidden;rotatable=0;points=[[0,0.5],[1,0.5]];portConstraint=eastwest;" parent="81" vertex="1">
                    <mxGeometry width="160" height="25" as="geometry"/>
                </mxCell>
                <mxCell id="83" value="thumbnail: img" style="text;strokeColor=none;fillColor=none;align=left;verticalAlign=top;spacingLeft=4;spacingRight=4;overflow=hidden;rotatable=0;points=[[0,0.5],[1,0.5]];portConstraint=eastwest;" parent="81" vertex="1">
                    <mxGeometry y="25" width="160" height="25" as="geometry"/>
                </mxCell>
                <mxCell id="84" value="play: button" style="text;strokeColor=none;fillColor=none;align=left;verticalAlign=top;spacingLeft=4;spacingRight=4;overflow=hidden;rotatable=0;points=[[0,0.5],[1,0.5]];portConstraint=eastwest;" parent="81" vertex="1">
                    <mxGeometry y="50" width="160" height="25" as="geometry"/>
                </mxCell>
                <mxCell id="86" value="" style="swimlane;fontStyle=0;childLayout=stackLayout;horizontal=1;startSize=0;horizontalStack=0;resizeParent=1;resizeParentMax=0;resizeLast=0;collapsible=1;marginBottom=0;" parent="80" vertex="1">
                    <mxGeometry y="95" width="160" height="50" as="geometry">
                        <mxRectangle y="20" width="40" height="26" as="alternateBounds"/>
                    </mxGeometry>
                </mxCell>
                <mxCell id="87" value="+ onTitleClicked" style="text;strokeColor=none;fillColor=none;align=left;verticalAlign=top;spacingLeft=4;spacingRight=4;overflow=hidden;rotatable=0;points=[[0,0.5],[1,0.5]];portConstraint=eastwest;" parent="86" vertex="1">
                    <mxGeometry width="160" height="25" as="geometry"/>
                </mxCell>
                <mxCell id="88" value="+ onPlayClicked" style="text;strokeColor=none;fillColor=none;align=left;verticalAlign=top;spacingLeft=4;spacingRight=4;overflow=hidden;rotatable=0;points=[[0,0.5],[1,0.5]];portConstraint=eastwest;" parent="86" vertex="1">
                    <mxGeometry y="25" width="160" height="25" as="geometry"/>
                </mxCell>
                <mxCell id="90" value="ResultLine" style="swimlane;startSize=20;" parent="1" vertex="1">
                    <mxGeometry x="40" y="280" width="160" height="220" as="geometry">
                        <mxRectangle x="-800" y="120" width="130" height="23" as="alternateBounds"/>
                    </mxGeometry>
                </mxCell>
                <mxCell id="91" value="" style="swimlane;fontStyle=0;childLayout=stackLayout;horizontal=1;startSize=0;horizontalStack=0;resizeParent=1;resizeParentMax=0;resizeLast=0;collapsible=1;marginBottom=0;" parent="90" vertex="1">
                    <mxGeometry y="20" width="160" height="125" as="geometry">
                        <mxRectangle y="20" width="40" height="26" as="alternateBounds"/>
                    </mxGeometry>
                </mxCell>
                <mxCell id="92" value="title: text" style="text;strokeColor=none;fillColor=none;align=left;verticalAlign=top;spacingLeft=4;spacingRight=4;overflow=hidden;rotatable=0;points=[[0,0.5],[1,0.5]];portConstraint=eastwest;" parent="91" vertex="1">
                    <mxGeometry width="160" height="25" as="geometry"/>
                </mxCell>
                <mxCell id="93" value="author: text" style="text;strokeColor=none;fillColor=none;align=left;verticalAlign=top;spacingLeft=4;spacingRight=4;overflow=hidden;rotatable=0;points=[[0,0.5],[1,0.5]];portConstraint=eastwest;" parent="91" vertex="1">
                    <mxGeometry y="25" width="160" height="25" as="geometry"/>
                </mxCell>
                <mxCell id="94" value="view: text" style="text;strokeColor=none;fillColor=none;align=left;verticalAlign=top;spacingLeft=4;spacingRight=4;overflow=hidden;rotatable=0;points=[[0,0.5],[1,0.5]];portConstraint=eastwest;" parent="91" vertex="1">
                    <mxGeometry y="50" width="160" height="25" as="geometry"/>
                </mxCell>
                <mxCell id="100" value="likes: text" style="text;strokeColor=none;fillColor=none;align=left;verticalAlign=top;spacingLeft=4;spacingRight=4;overflow=hidden;rotatable=0;points=[[0,0.5],[1,0.5]];portConstraint=eastwest;" parent="91" vertex="1">
                    <mxGeometry y="75" width="160" height="25" as="geometry"/>
                </mxCell>
                <mxCell id="101" value="play: button" style="text;strokeColor=none;fillColor=none;align=left;verticalAlign=top;spacingLeft=4;spacingRight=4;overflow=hidden;rotatable=0;points=[[0,0.5],[1,0.5]];portConstraint=eastwest;" parent="91" vertex="1">
                    <mxGeometry y="100" width="160" height="25" as="geometry"/>
                </mxCell>
                <mxCell id="95" value="" style="swimlane;fontStyle=0;childLayout=stackLayout;horizontal=1;startSize=0;horizontalStack=0;resizeParent=1;resizeParentMax=0;resizeLast=0;collapsible=1;marginBottom=0;" parent="90" vertex="1">
                    <mxGeometry y="145" width="160" height="75" as="geometry">
                        <mxRectangle y="20" width="40" height="26" as="alternateBounds"/>
                    </mxGeometry>
                </mxCell>
                <mxCell id="96" value="+ onLineClicked" style="text;strokeColor=none;fillColor=none;align=left;verticalAlign=top;spacingLeft=4;spacingRight=4;overflow=hidden;rotatable=0;points=[[0,0.5],[1,0.5]];portConstraint=eastwest;" parent="95" vertex="1">
                    <mxGeometry width="160" height="25" as="geometry"/>
                </mxCell>
                <mxCell id="97" value="+ onAuthorClicked" style="text;strokeColor=none;fillColor=none;align=left;verticalAlign=top;spacingLeft=4;spacingRight=4;overflow=hidden;rotatable=0;points=[[0,0.5],[1,0.5]];portConstraint=eastwest;" parent="95" vertex="1">
                    <mxGeometry y="25" width="160" height="25" as="geometry"/>
                </mxCell>
                <mxCell id="102" value="+ onPlayClicked" style="text;strokeColor=none;fillColor=none;align=left;verticalAlign=top;spacingLeft=4;spacingRight=4;overflow=hidden;rotatable=0;points=[[0,0.5],[1,0.5]];portConstraint=eastwest;" parent="95" vertex="1">
                    <mxGeometry y="50" width="160" height="25" as="geometry"/>
                </mxCell>
                <mxCell id="143" value="Search" style="swimlane;startSize=20;" parent="1" vertex="1">
                    <mxGeometry x="240" y="120" width="160" height="95" as="geometry">
                        <mxRectangle x="-800" y="120" width="130" height="23" as="alternateBounds"/>
                    </mxGeometry>
                </mxCell>
                <mxCell id="144" value="" style="swimlane;fontStyle=0;childLayout=stackLayout;horizontal=1;startSize=0;horizontalStack=0;resizeParent=1;resizeParentMax=0;resizeLast=0;collapsible=1;marginBottom=0;" parent="143" vertex="1">
                    <mxGeometry y="20" width="160" height="50" as="geometry">
                        <mxRectangle y="20" width="40" height="26" as="alternateBounds"/>
                    </mxGeometry>
                </mxCell>
                <mxCell id="145" value="key: input" style="text;strokeColor=none;fillColor=none;align=left;verticalAlign=top;spacingLeft=4;spacingRight=4;overflow=hidden;rotatable=0;points=[[0,0.5],[1,0.5]];portConstraint=eastwest;" parent="144" vertex="1">
                    <mxGeometry width="160" height="25" as="geometry"/>
                </mxCell>
                <mxCell id="146" value="search: button" style="text;strokeColor=none;fillColor=none;align=left;verticalAlign=top;spacingLeft=4;spacingRight=4;overflow=hidden;rotatable=0;points=[[0,0.5],[1,0.5]];portConstraint=eastwest;" parent="144" vertex="1">
                    <mxGeometry y="25" width="160" height="25" as="geometry"/>
                </mxCell>
                <mxCell id="148" value="" style="swimlane;fontStyle=0;childLayout=stackLayout;horizontal=1;startSize=0;horizontalStack=0;resizeParent=1;resizeParentMax=0;resizeLast=0;collapsible=1;marginBottom=0;" parent="143" vertex="1">
                    <mxGeometry y="70" width="160" height="25" as="geometry">
                        <mxRectangle y="20" width="40" height="26" as="alternateBounds"/>
                    </mxGeometry>
                </mxCell>
                <mxCell id="149" value="+ onSearchClicked" style="text;strokeColor=none;fillColor=none;align=left;verticalAlign=top;spacingLeft=4;spacingRight=4;overflow=hidden;rotatable=0;points=[[0,0.5],[1,0.5]];portConstraint=eastwest;" parent="148" vertex="1">
                    <mxGeometry width="160" height="25" as="geometry"/>
                </mxCell>
                <mxCell id="172" value="TopCombinations" style="swimlane;startSize=20;" parent="1" vertex="1">
                    <mxGeometry x="40" y="519.5" width="190" height="20.5" as="geometry">
                        <mxRectangle x="-800" y="120" width="130" height="23" as="alternateBounds"/>
                    </mxGeometry>
                </mxCell>
                <mxCell id="173" value="" style="swimlane;fontStyle=0;childLayout=stackLayout;horizontal=1;startSize=0;horizontalStack=0;resizeParent=1;resizeParentMax=0;resizeLast=0;collapsible=1;marginBottom=0;" parent="172" vertex="1">
                    <mxGeometry y="20" width="190" height="75" as="geometry">
                        <mxRectangle y="20" width="40" height="26" as="alternateBounds"/>
                    </mxGeometry>
                </mxCell>
                <mxCell id="174" value="title: text" style="text;strokeColor=none;fillColor=none;align=left;verticalAlign=top;spacingLeft=4;spacingRight=4;overflow=hidden;rotatable=0;points=[[0,0.5],[1,0.5]];portConstraint=eastwest;" parent="173" vertex="1">
                    <mxGeometry width="190" height="25" as="geometry"/>
                </mxCell>
                <mxCell id="175" value="header: text" style="text;strokeColor=none;fillColor=none;align=left;verticalAlign=top;spacingLeft=4;spacingRight=4;overflow=hidden;rotatable=0;points=[[0,0.5],[1,0.5]];portConstraint=eastwest;" parent="173" vertex="1">
                    <mxGeometry y="25" width="190" height="25" as="geometry"/>
                </mxCell>
                <mxCell id="176" value="combination: List&lt;CombinationLine&gt;" style="text;strokeColor=none;fillColor=none;align=left;verticalAlign=top;spacingLeft=4;spacingRight=4;overflow=hidden;rotatable=0;points=[[0,0.5],[1,0.5]];portConstraint=eastwest;fontSize=11;" parent="173" vertex="1">
                    <mxGeometry y="50" width="190" height="25" as="geometry"/>
                </mxCell>
                <mxCell id="179" value="" style="swimlane;fontStyle=0;childLayout=stackLayout;horizontal=1;startSize=0;horizontalStack=0;resizeParent=1;resizeParentMax=0;resizeLast=0;collapsible=1;marginBottom=0;" parent="172" vertex="1">
                    <mxGeometry y="95" width="190" height="50" as="geometry">
                        <mxRectangle y="20" width="40" height="26" as="alternateBounds"/>
                    </mxGeometry>
                </mxCell>
                <mxCell id="180" value="+ onGetButtonClicked" style="text;strokeColor=none;fillColor=none;align=left;verticalAlign=top;spacingLeft=4;spacingRight=4;overflow=hidden;rotatable=0;points=[[0,0.5],[1,0.5]];portConstraint=eastwest;" parent="179" vertex="1">
                    <mxGeometry width="190" height="25" as="geometry"/>
                </mxCell>
                <mxCell id="181" value="+ onListenButtonClicked" style="text;strokeColor=none;fillColor=none;align=left;verticalAlign=top;spacingLeft=4;spacingRight=4;overflow=hidden;rotatable=0;points=[[0,0.5],[1,0.5]];portConstraint=eastwest;" parent="179" vertex="1">
                    <mxGeometry y="25" width="190" height="25" as="geometry"/>
                </mxCell>
                <mxCell id="183" value="CombinationLine" style="swimlane;startSize=20;" parent="1" vertex="1">
                    <mxGeometry x="254" y="519.5" width="160" height="220" as="geometry">
                        <mxRectangle x="240" y="519.5" width="130" height="23" as="alternateBounds"/>
                    </mxGeometry>
                </mxCell>
                <mxCell id="184" value="" style="swimlane;fontStyle=0;childLayout=stackLayout;horizontal=1;startSize=0;horizontalStack=0;resizeParent=1;resizeParentMax=0;resizeLast=0;collapsible=1;marginBottom=0;" parent="183" vertex="1">
                    <mxGeometry y="20" width="160" height="150" as="geometry">
                        <mxRectangle y="20" width="40" height="26" as="alternateBounds"/>
                    </mxGeometry>
                </mxCell>
                <mxCell id="185" value="rank: text" style="text;strokeColor=none;fillColor=none;align=left;verticalAlign=top;spacingLeft=4;spacingRight=4;overflow=hidden;rotatable=0;points=[[0,0.5],[1,0.5]];portConstraint=eastwest;" parent="184" vertex="1">
                    <mxGeometry width="160" height="25" as="geometry"/>
                </mxCell>
                <mxCell id="186" value="covers: img" style="text;strokeColor=none;fillColor=none;align=left;verticalAlign=top;spacingLeft=4;spacingRight=4;overflow=hidden;rotatable=0;points=[[0,0.5],[1,0.5]];portConstraint=eastwest;" parent="184" vertex="1">
                    <mxGeometry y="25" width="160" height="25" as="geometry"/>
                </mxCell>
                <mxCell id="187" value="plays: text" style="text;strokeColor=none;fillColor=none;align=left;verticalAlign=top;spacingLeft=4;spacingRight=4;overflow=hidden;rotatable=0;points=[[0,0.5],[1,0.5]];portConstraint=eastwest;" parent="184" vertex="1">
                    <mxGeometry y="50" width="160" height="25" as="geometry"/>
                </mxCell>
                <mxCell id="191" value="views: text" style="text;strokeColor=none;fillColor=none;align=left;verticalAlign=top;spacingLeft=4;spacingRight=4;overflow=hidden;rotatable=0;points=[[0,0.5],[1,0.5]];portConstraint=eastwest;" parent="184" vertex="1">
                    <mxGeometry y="75" width="160" height="25" as="geometry"/>
                </mxCell>
                <mxCell id="193" value="get: button" style="text;strokeColor=none;fillColor=none;align=left;verticalAlign=top;spacingLeft=4;spacingRight=4;overflow=hidden;rotatable=0;points=[[0,0.5],[1,0.5]];portConstraint=eastwest;" parent="184" vertex="1">
                    <mxGeometry y="100" width="160" height="25" as="geometry"/>
                </mxCell>
                <mxCell id="192" value="listen: button" style="text;strokeColor=none;fillColor=none;align=left;verticalAlign=top;spacingLeft=4;spacingRight=4;overflow=hidden;rotatable=0;points=[[0,0.5],[1,0.5]];portConstraint=eastwest;" parent="184" vertex="1">
                    <mxGeometry y="125" width="160" height="25" as="geometry"/>
                </mxCell>
                <mxCell id="188" value="" style="swimlane;fontStyle=0;childLayout=stackLayout;horizontal=1;startSize=0;horizontalStack=0;resizeParent=1;resizeParentMax=0;resizeLast=0;collapsible=1;marginBottom=0;" parent="183" vertex="1">
                    <mxGeometry y="170" width="160" height="50" as="geometry">
                        <mxRectangle y="20" width="40" height="26" as="alternateBounds"/>
                    </mxGeometry>
                </mxCell>
                <mxCell id="189" value="+ onGetButtonClicked" style="text;strokeColor=none;fillColor=none;align=left;verticalAlign=top;spacingLeft=4;spacingRight=4;overflow=hidden;rotatable=0;points=[[0,0.5],[1,0.5]];portConstraint=eastwest;" parent="188" vertex="1">
                    <mxGeometry width="160" height="25" as="geometry"/>
                </mxCell>
                <mxCell id="190" value="+ onListenButtonClicked" style="text;strokeColor=none;fillColor=none;align=left;verticalAlign=top;spacingLeft=4;spacingRight=4;overflow=hidden;rotatable=0;points=[[0,0.5],[1,0.5]];portConstraint=eastwest;" parent="188" vertex="1">
                    <mxGeometry y="25" width="160" height="25" as="geometry"/>
                </mxCell>
                <mxCell id="194" value="CoverSelecter" style="swimlane;startSize=20;" parent="1" vertex="1">
                    <mxGeometry x="240" y="280" width="160" height="120" as="geometry">
                        <mxRectangle x="-800" y="120" width="130" height="23" as="alternateBounds"/>
                    </mxGeometry>
                </mxCell>
                <mxCell id="195" value="" style="swimlane;fontStyle=0;childLayout=stackLayout;horizontal=1;startSize=0;horizontalStack=0;resizeParent=1;resizeParentMax=0;resizeLast=0;collapsible=1;marginBottom=0;" parent="194" vertex="1">
                    <mxGeometry y="20" width="160" height="100" as="geometry">
                        <mxRectangle y="20" width="40" height="26" as="alternateBounds"/>
                    </mxGeometry>
                </mxCell>
                <mxCell id="196" value="cover: img" style="text;strokeColor=none;fillColor=none;align=left;verticalAlign=top;spacingLeft=4;spacingRight=4;overflow=hidden;rotatable=0;points=[[0,0.5],[1,0.5]];portConstraint=eastwest;" parent="195" vertex="1">
                    <mxGeometry width="160" height="25" as="geometry"/>
                </mxCell>
                <mxCell id="197" value="add: button" style="text;strokeColor=none;fillColor=none;align=left;verticalAlign=top;spacingLeft=4;spacingRight=4;overflow=hidden;rotatable=0;points=[[0,0.5],[1,0.5]];portConstraint=eastwest;" parent="195" vertex="1">
                    <mxGeometry y="25" width="160" height="25" as="geometry"/>
                </mxCell>
                <mxCell id="202" value="" style="swimlane;fontStyle=0;childLayout=stackLayout;horizontal=1;startSize=0;horizontalStack=0;resizeParent=1;resizeParentMax=0;resizeLast=0;collapsible=1;marginBottom=0;" parent="195" vertex="1">
                    <mxGeometry y="50" width="160" height="50" as="geometry">
                        <mxRectangle y="20" width="40" height="26" as="alternateBounds"/>
                    </mxGeometry>
                </mxCell>
                <mxCell id="203" value="+ onCoverClicked" style="text;strokeColor=none;fillColor=none;align=left;verticalAlign=top;spacingLeft=4;spacingRight=4;overflow=hidden;rotatable=0;points=[[0,0.5],[1,0.5]];portConstraint=eastwest;" parent="202" vertex="1">
                    <mxGeometry width="160" height="25" as="geometry"/>
                </mxCell>
                <mxCell id="204" value="+ onAddButtonClicked" style="text;strokeColor=none;fillColor=none;align=left;verticalAlign=top;spacingLeft=4;spacingRight=4;overflow=hidden;rotatable=0;points=[[0,0.5],[1,0.5]];portConstraint=eastwest;" parent="202" vertex="1">
                    <mxGeometry y="25" width="160" height="25" as="geometry"/>
                </mxCell>
                <mxCell id="206" value="Covers" style="swimlane;startSize=20;" parent="1" vertex="1">
                    <mxGeometry x="40" y="760" width="160" height="145" as="geometry">
                        <mxRectangle x="-800" y="120" width="130" height="23" as="alternateBounds"/>
                    </mxGeometry>
                </mxCell>
                <mxCell id="207" value="" style="swimlane;fontStyle=0;childLayout=stackLayout;horizontal=1;startSize=0;horizontalStack=0;resizeParent=1;resizeParentMax=0;resizeLast=0;collapsible=1;marginBottom=0;" parent="206" vertex="1">
                    <mxGeometry y="20" width="160" height="75" as="geometry">
                        <mxRectangle y="20" width="40" height="26" as="alternateBounds"/>
                    </mxGeometry>
                </mxCell>
                <mxCell id="208" value="title: text" style="text;strokeColor=none;fillColor=none;align=left;verticalAlign=top;spacingLeft=4;spacingRight=4;overflow=hidden;rotatable=0;points=[[0,0.5],[1,0.5]];portConstraint=eastwest;" parent="207" vertex="1">
                    <mxGeometry width="160" height="25" as="geometry"/>
                </mxCell>
                <mxCell id="209" value="header: text" style="text;strokeColor=none;fillColor=none;align=left;verticalAlign=top;spacingLeft=4;spacingRight=4;overflow=hidden;rotatable=0;points=[[0,0.5],[1,0.5]];portConstraint=eastwest;" parent="207" vertex="1">
                    <mxGeometry y="25" width="160" height="25" as="geometry"/>
                </mxCell>
                <mxCell id="210" value="cover: LIst&lt;CoverLine&gt;" style="text;strokeColor=none;fillColor=none;align=left;verticalAlign=top;spacingLeft=4;spacingRight=4;overflow=hidden;rotatable=0;points=[[0,0.5],[1,0.5]];portConstraint=eastwest;" parent="207" vertex="1">
                    <mxGeometry y="50" width="160" height="25" as="geometry"/>
                </mxCell>
                <mxCell id="211" value="" style="swimlane;fontStyle=0;childLayout=stackLayout;horizontal=1;startSize=0;horizontalStack=0;resizeParent=1;resizeParentMax=0;resizeLast=0;collapsible=1;marginBottom=0;" parent="206" vertex="1">
                    <mxGeometry y="95" width="160" height="50" as="geometry">
                        <mxRectangle y="20" width="40" height="26" as="alternateBounds"/>
                    </mxGeometry>
                </mxCell>
                <mxCell id="212" value="+ onGetButtonClicked" style="text;strokeColor=none;fillColor=none;align=left;verticalAlign=top;spacingLeft=4;spacingRight=4;overflow=hidden;rotatable=0;points=[[0,0.5],[1,0.5]];portConstraint=eastwest;" parent="211" vertex="1">
                    <mxGeometry width="160" height="25" as="geometry"/>
                </mxCell>
                <mxCell id="213" value="+ onTitleClicked" style="text;strokeColor=none;fillColor=none;align=left;verticalAlign=top;spacingLeft=4;spacingRight=4;overflow=hidden;rotatable=0;points=[[0,0.5],[1,0.5]];portConstraint=eastwest;" parent="211" vertex="1">
                    <mxGeometry y="25" width="160" height="25" as="geometry"/>
                </mxCell>
                <mxCell id="214" value="CoverLine" style="swimlane;startSize=20;" parent="1" vertex="1">
                    <mxGeometry x="250" y="760" width="160" height="270" as="geometry">
                        <mxRectangle x="-800" y="120" width="130" height="23" as="alternateBounds"/>
                    </mxGeometry>
                </mxCell>
                <mxCell id="215" value="" style="swimlane;fontStyle=0;childLayout=stackLayout;horizontal=1;startSize=0;horizontalStack=0;resizeParent=1;resizeParentMax=0;resizeLast=0;collapsible=1;marginBottom=0;" parent="214" vertex="1">
                    <mxGeometry y="20" width="160" height="200" as="geometry">
                        <mxRectangle y="20" width="40" height="26" as="alternateBounds"/>
                    </mxGeometry>
                </mxCell>
                <mxCell id="216" value="rank: text" style="text;strokeColor=none;fillColor=none;align=left;verticalAlign=top;spacingLeft=4;spacingRight=4;overflow=hidden;rotatable=0;points=[[0,0.5],[1,0.5]];portConstraint=eastwest;" parent="215" vertex="1">
                    <mxGeometry width="160" height="25" as="geometry"/>
                </mxCell>
                <mxCell id="217" value="author: text" style="text;strokeColor=none;fillColor=none;align=left;verticalAlign=top;spacingLeft=4;spacingRight=4;overflow=hidden;rotatable=0;points=[[0,0.5],[1,0.5]];portConstraint=eastwest;" parent="215" vertex="1">
                    <mxGeometry y="25" width="160" height="25" as="geometry"/>
                </mxCell>
                <mxCell id="227" value="title: text" style="text;strokeColor=none;fillColor=none;align=left;verticalAlign=top;spacingLeft=4;spacingRight=4;overflow=hidden;rotatable=0;points=[[0,0.5],[1,0.5]];portConstraint=eastwest;" parent="215" vertex="1">
                    <mxGeometry y="50" width="160" height="25" as="geometry"/>
                </mxCell>
                <mxCell id="228" value="tags: text" style="text;strokeColor=none;fillColor=none;align=left;verticalAlign=top;spacingLeft=4;spacingRight=4;overflow=hidden;rotatable=0;points=[[0,0.5],[1,0.5]];portConstraint=eastwest;" parent="215" vertex="1">
                    <mxGeometry y="75" width="160" height="25" as="geometry"/>
                </mxCell>
                <mxCell id="218" value="plays: text" style="text;strokeColor=none;fillColor=none;align=left;verticalAlign=top;spacingLeft=4;spacingRight=4;overflow=hidden;rotatable=0;points=[[0,0.5],[1,0.5]];portConstraint=eastwest;" parent="215" vertex="1">
                    <mxGeometry y="100" width="160" height="25" as="geometry"/>
                </mxCell>
                <mxCell id="219" value="views: text" style="text;strokeColor=none;fillColor=none;align=left;verticalAlign=top;spacingLeft=4;spacingRight=4;overflow=hidden;rotatable=0;points=[[0,0.5],[1,0.5]];portConstraint=eastwest;" parent="215" vertex="1">
                    <mxGeometry y="125" width="160" height="25" as="geometry"/>
                </mxCell>
                <mxCell id="220" value="get: button" style="text;strokeColor=none;fillColor=none;align=left;verticalAlign=top;spacingLeft=4;spacingRight=4;overflow=hidden;rotatable=0;points=[[0,0.5],[1,0.5]];portConstraint=eastwest;" parent="215" vertex="1">
                    <mxGeometry y="150" width="160" height="25" as="geometry"/>
                </mxCell>
                <mxCell id="221" value="listen: button" style="text;strokeColor=none;fillColor=none;align=left;verticalAlign=top;spacingLeft=4;spacingRight=4;overflow=hidden;rotatable=0;points=[[0,0.5],[1,0.5]];portConstraint=eastwest;" parent="215" vertex="1">
                    <mxGeometry y="175" width="160" height="25" as="geometry"/>
                </mxCell>
                <mxCell id="222" value="" style="swimlane;fontStyle=0;childLayout=stackLayout;horizontal=1;startSize=0;horizontalStack=0;resizeParent=1;resizeParentMax=0;resizeLast=0;collapsible=1;marginBottom=0;" parent="214" vertex="1">
                    <mxGeometry y="220" width="160" height="50" as="geometry">
                        <mxRectangle y="20" width="40" height="26" as="alternateBounds"/>
                    </mxGeometry>
                </mxCell>
                <mxCell id="223" value="+ onGetButtonClicked" style="text;strokeColor=none;fillColor=none;align=left;verticalAlign=top;spacingLeft=4;spacingRight=4;overflow=hidden;rotatable=0;points=[[0,0.5],[1,0.5]];portConstraint=eastwest;" parent="222" vertex="1">
                    <mxGeometry width="160" height="25" as="geometry"/>
                </mxCell>
                <mxCell id="229" value="+ onTitleClicked" style="text;strokeColor=none;fillColor=none;align=left;verticalAlign=top;spacingLeft=4;spacingRight=4;overflow=hidden;rotatable=0;points=[[0,0.5],[1,0.5]];portConstraint=eastwest;" parent="222" vertex="1">
                    <mxGeometry y="25" width="160" height="25" as="geometry"/>
                </mxCell>
                <mxCell id="261" value="SimplePlayer" style="swimlane;startSize=20;" parent="1" vertex="1">
                    <mxGeometry x="440" y="120" width="160" height="240" as="geometry">
                        <mxRectangle x="-800" y="120" width="130" height="23" as="alternateBounds"/>
                    </mxGeometry>
                </mxCell>
                <mxCell id="262" value="" style="swimlane;fontStyle=0;childLayout=stackLayout;horizontal=1;startSize=0;horizontalStack=0;resizeParent=1;resizeParentMax=0;resizeLast=0;collapsible=1;marginBottom=0;" parent="261" vertex="1">
                    <mxGeometry y="20" width="160" height="125" as="geometry">
                        <mxRectangle y="20" width="40" height="26" as="alternateBounds"/>
                    </mxGeometry>
                </mxCell>
                <mxCell id="263" value="play: button" style="text;strokeColor=none;fillColor=none;align=left;verticalAlign=top;spacingLeft=4;spacingRight=4;overflow=hidden;rotatable=0;points=[[0,0.5],[1,0.5]];portConstraint=eastwest;" parent="262" vertex="1">
                    <mxGeometry width="160" height="25" as="geometry"/>
                </mxCell>
                <mxCell id="264" value="pause: button" style="text;strokeColor=none;fillColor=none;align=left;verticalAlign=top;spacingLeft=4;spacingRight=4;overflow=hidden;rotatable=0;points=[[0,0.5],[1,0.5]];portConstraint=eastwest;" parent="262" vertex="1">
                    <mxGeometry y="25" width="160" height="25" as="geometry"/>
                </mxCell>
                <mxCell id="265" value="progress: img" style="text;strokeColor=none;fillColor=none;align=left;verticalAlign=top;spacingLeft=4;spacingRight=4;overflow=hidden;rotatable=0;points=[[0,0.5],[1,0.5]];portConstraint=eastwest;" parent="262" vertex="1">
                    <mxGeometry y="50" width="160" height="25" as="geometry"/>
                </mxCell>
                <mxCell id="360" value="like: button" style="text;strokeColor=none;fillColor=none;align=left;verticalAlign=top;spacingLeft=4;spacingRight=4;overflow=hidden;rotatable=0;points=[[0,0.5],[1,0.5]];portConstraint=eastwest;" parent="262" vertex="1">
                    <mxGeometry y="75" width="160" height="25" as="geometry"/>
                </mxCell>
                <mxCell id="361" value="unlike: button" style="text;strokeColor=none;fillColor=none;align=left;verticalAlign=top;spacingLeft=4;spacingRight=4;overflow=hidden;rotatable=0;points=[[0,0.5],[1,0.5]];portConstraint=eastwest;" parent="262" vertex="1">
                    <mxGeometry y="100" width="160" height="25" as="geometry"/>
                </mxCell>
                <mxCell id="271" value="" style="swimlane;fontStyle=0;childLayout=stackLayout;horizontal=1;startSize=0;horizontalStack=0;resizeParent=1;resizeParentMax=0;resizeLast=0;collapsible=1;marginBottom=0;" parent="261" vertex="1">
                    <mxGeometry y="145" width="160" height="100" as="geometry">
                        <mxRectangle y="20" width="40" height="26" as="alternateBounds"/>
                    </mxGeometry>
                </mxCell>
                <mxCell id="272" value="+ onPlayButtonClicked" style="text;strokeColor=none;fillColor=none;align=left;verticalAlign=top;spacingLeft=4;spacingRight=4;overflow=hidden;rotatable=0;points=[[0,0.5],[1,0.5]];portConstraint=eastwest;" parent="271" vertex="1">
                    <mxGeometry width="160" height="25" as="geometry"/>
                </mxCell>
                <mxCell id="273" value="+ onPauseButtonClicked" style="text;strokeColor=none;fillColor=none;align=left;verticalAlign=top;spacingLeft=4;spacingRight=4;overflow=hidden;rotatable=0;points=[[0,0.5],[1,0.5]];portConstraint=eastwest;" parent="271" vertex="1">
                    <mxGeometry y="25" width="160" height="25" as="geometry"/>
                </mxCell>
                <mxCell id="362" value="+ onLikeButtonClicked" style="text;strokeColor=none;fillColor=none;align=left;verticalAlign=top;spacingLeft=4;spacingRight=4;overflow=hidden;rotatable=0;points=[[0,0.5],[1,0.5]];portConstraint=eastwest;" parent="271" vertex="1">
                    <mxGeometry y="50" width="160" height="25" as="geometry"/>
                </mxCell>
                <mxCell id="363" value="+ onUnlikeButtonClicked" style="text;strokeColor=none;fillColor=none;align=left;verticalAlign=top;spacingLeft=4;spacingRight=4;overflow=hidden;rotatable=0;points=[[0,0.5],[1,0.5]];portConstraint=eastwest;" parent="271" vertex="1">
                    <mxGeometry y="75" width="160" height="25" as="geometry"/>
                </mxCell>
            </root>
        </mxGraphModel>
    </diagram>
</mxfile>